# Blender 4.1.1
# www.blender.org
mtllib water.mtl
o Cube
v -5.000000 -1.000000 5.000000
v -5.000000 1.000000 5.000000
v -5.000000 -1.000000 -5.000000
v -5.000000 1.000000 -5.000000
v 5.000000 -1.000000 5.000000
v 5.000000 1.000000 5.000000
v 5.000000 -1.000000 -5.000000
v 5.000000 1.000000 -5.000000
vn -1.0000 -0.0000 -0.0000
vn -0.0000 -0.0000 -1.0000
vn 1.0000 -0.0000 -0.0000
vn -0.0000 -0.0000 1.0000
vn -0.0000 -1.0000 -0.0000
vn -0.0000 1.0000 -0.0000
vt 0.835332 0.088360
vt 0.910011 0.088360
vt 0.910011 0.161640
vt 0.835332 0.161640
vt 0.815978 0.095416
vt 0.923760 0.095416
vt 0.923760 0.150217
vt 0.815978 0.150217
vt 0.865849 0.884143
vt 0.941139 0.884143
vt 0.941139 0.971098
vt 0.865849 0.971098
vt 0.831401 0.837785
vt 0.913942 0.837785
vt 0.913942 0.912215
vt 0.831401 0.912215
vt 0.001710 -0.004367
vt 0.999855 0.001237
vt 0.999855 0.999382
vt 0.001710 1.002184
vt 0.000422 -0.002997
vt 1.000815 -0.002997
vt 1.000815 1.000813
vt 0.000422 1.000813
s 0
usemtl Material.203
f 1/1/1 2/2/1 4/3/1 3/4/1
f 3/5/2 4/6/2 8/7/2 7/8/2
f 7/9/3 8/10/3 6/11/3 5/12/3
f 5/13/4 6/14/4 2/15/4 1/16/4
f 3/17/5 7/18/5 5/19/5 1/20/5
f 8/21/6 4/22/6 2/23/6 6/24/6
